<svg width="184" height="263" viewBox="0 0 184 263" fill="none" xmlns="http://www.w3.org/2000/svg">
<path d="M86.5622 262.132V104.168C83.6279 102.864 81.5087 101.11 80.2046 98.9055C78.9004 96.7015 78.2484 94.3605 78.2484 91.8826C78.2484 88.3357 79.634 85.1766 82.4053 82.4053C85.1766 79.634 88.3554 78.2484 91.9418 78.2484C95.5282 78.2484 98.707 79.634 101.478 82.4053C104.25 85.1766 105.635 88.3165 105.635 91.825C105.635 94.2702 104.983 96.5311 103.679 98.6076C102.375 100.684 100.256 102.538 97.3214 104.168V262.132H86.5622ZM30.3212 160.409C20.8662 151.932 13.4489 141.822 8.06936 130.078C2.68978 118.334 0 105.622 0 91.9418C0 66.4025 8.92766 44.694 26.783 26.8162C44.6379 8.93874 66.3192 0 91.8269 0C117.334 0 139.054 8.95763 156.986 26.8729C174.918 44.7882 183.884 66.5424 183.884 92.1355C183.884 105.7 181.194 118.269 175.814 129.843C170.435 141.418 163.017 151.606 153.562 160.409L145.738 152.584C154.263 144.963 160.958 135.966 165.825 125.595C170.691 115.223 173.125 104.005 173.125 91.9418C173.125 69.3721 165.244 50.1993 149.483 34.4234C133.723 18.6472 114.568 10.7592 92.0196 10.7592C69.4713 10.7592 50.2909 18.6529 34.4782 34.4405C18.6655 50.2284 10.7592 69.4154 10.7592 92.0015C10.7592 104.351 13.1923 115.654 18.0587 125.91C22.9251 136.167 29.6209 145.058 38.1461 152.584L30.3212 160.409Z" fill="#65A603"/>
</svg>
