<svg width="341" height="341" viewBox="0 0 341 341" fill="none" xmlns="http://www.w3.org/2000/svg">
<path d="M164.811 340.38V182.417C161.876 181.112 159.757 179.358 158.453 177.154C157.149 174.95 156.497 172.609 156.497 170.131C156.497 166.584 157.882 163.425 160.654 160.654C163.425 157.882 166.604 156.497 170.19 156.497C173.777 156.497 176.955 157.882 179.727 160.654C182.498 163.425 183.884 166.565 183.884 170.073C183.884 172.519 183.232 174.779 181.927 176.856C180.623 178.933 178.504 180.786 175.57 182.417V340.38H164.811ZM53.3067 293.92C36.6789 278.271 23.6375 259.867 14.1825 238.709C4.72751 217.551 0 194.76 0 170.336C0 146.764 4.46521 124.617 13.3956 103.895C22.3264 83.1728 34.4464 65.1473 49.7557 49.8188C65.0653 34.4899 83.0681 22.3546 103.764 13.4128C124.46 4.47093 146.574 0 170.105 0C193.636 0 215.763 4.46944 236.485 13.4083C257.208 22.3469 275.233 34.478 290.562 49.8017C305.89 65.1253 318.026 83.1448 326.968 103.86C335.909 124.575 340.38 146.709 340.38 170.263C340.38 194.667 335.653 217.384 326.198 238.413C316.743 259.442 303.701 277.945 287.074 293.92L279.738 286.096C295.062 271.485 307.206 254.316 316.172 234.587C325.138 214.857 329.621 193.392 329.621 170.19C329.621 125.804 314.15 88.1362 283.209 57.1854C252.267 26.2346 214.61 10.7592 170.238 10.7592C125.865 10.7592 88.1924 26.2354 57.2191 57.1878C26.2458 88.1399 10.7592 125.81 10.7592 170.198C10.7592 193.341 15.2421 214.857 24.2081 234.745C33.174 254.633 45.4819 271.75 61.1315 286.096L53.3067 293.92ZM108.57 238.658C99.1146 230.181 91.6973 220.07 86.3177 208.326C80.9382 196.582 78.2484 183.87 78.2484 170.19C78.2484 144.651 87.176 122.942 105.031 105.065C122.886 87.1871 144.568 78.2484 170.075 78.2484C195.583 78.2484 217.302 87.206 235.234 105.121C253.166 123.037 262.132 144.791 262.132 170.384C262.132 183.948 259.442 196.518 254.063 208.092C248.683 219.666 241.266 229.855 231.811 238.658L223.986 230.833C232.511 223.211 239.207 214.215 244.073 203.843C248.94 193.471 251.373 182.253 251.373 170.19C251.373 147.62 243.492 128.448 227.732 112.672C211.971 96.8956 192.817 89.0075 170.268 89.0075C147.72 89.0075 128.539 96.9013 112.727 112.689C96.9139 128.477 89.0075 147.664 89.0075 170.25C89.0075 182.599 91.4407 193.902 96.3071 204.159C101.174 214.416 107.869 223.307 116.394 230.833L108.57 238.658Z" fill="#65A603"/>
</svg>
